<?xml version="1.0" encoding="utf-8"?>
<!-- Generator: Adobe Illustrator 23.0.6, SVG Export Plug-In . SVG Version: 6.00 Build 0)  -->
<svg version="1.1" id="Layer_1" xmlns="http://www.w3.org/2000/svg" xmlns:xlink="http://www.w3.org/1999/xlink" x="0px" y="0px"
	 viewBox="0 0 250 250" style="enable-background:new 0 0 250 250;" xml:space="preserve">
<style type="text/css">
	.st0{fill:none;stroke:#EE6359;stroke-width:4.5;stroke-linecap:round;stroke-linejoin:round;stroke-miterlimit:10;}
	.st1{enable-background:new    ;}
	.st2{clip-path:url(#SVGID_2_);enable-background:new    ;}
	.st3{fill:#4E4F4F;}
	.st4{fill:#4D4E4E;}
	.st5{fill:#4C4D4D;}
	.st6{fill:#4B4C4C;}
	.st7{fill:#494A4A;}
	.st8{fill:#484949;}
	.st9{fill:#474848;}
	.st10{fill:#4F5050;}
	.st11{fill:#515152;}
	.st12{fill:#525353;}
	.st13{fill:#535454;}
	.st14{fill:#545555;}
	.st15{fill:#565656;}
	.st16{fill:#575757;}
	.st17{fill:#585859;}
	.st18{fill:#595A5A;}
	.st19{fill:#5A5B5B;}
	.st20{fill:#5C5C5C;}
	.st21{fill:#5D5D5D;}
	.st22{fill:#5E5E5E;}
	.st23{fill:#5F6060;}
	.st24{fill:#606161;}
	.st25{fill:#626262;}
	.st26{fill:#636363;}
	.st27{fill:#646464;}
	.st28{fill:#716F6F;}
	.st29{fill:#767474;}
	.st30{fill:#7A7878;}
	.st31{fill:#7E7C7C;}
	.st32{fill:#817F7F;}
	.st33{fill:#848282;}
	.st34{fill:#878484;}
	.st35{fill:#898787;}
	.st36{fill:#8C8989;}
	.st37{fill:#8E8C8C;}
	.st38{fill:#918E8E;}
	.st39{fill:#939090;}
	.st40{fill:#959292;}
	.st41{fill:#979494;}
	.st42{fill:#999696;}
	.st43{fill:#9B9898;}
	.st44{fill:#9D9A9A;}
	.st45{fill:#9F9C9C;}
	.st46{fill:#A09E9E;}
	.st47{clip-path:url(#SVGID_4_);enable-background:new    ;}
	.st48{fill:#A4A1A2;}
	.st49{fill:#A2A0A0;}
	.st50{clip-path:url(#SVGID_6_);enable-background:new    ;}
	.st51{clip-path:url(#SVGID_8_);enable-background:new    ;}
	.st52{clip-path:url(#SVGID_10_);enable-background:new    ;}
	.st53{clip-path:url(#SVGID_12_);enable-background:new    ;}
	.st54{clip-path:url(#SVGID_14_);enable-background:new    ;}
	.st55{clip-path:url(#SVGID_16_);enable-background:new    ;}
	.st56{fill:#464747;}
	.st57{clip-path:url(#SVGID_18_);enable-background:new    ;}
	.st58{clip-path:url(#SVGID_20_);enable-background:new    ;}
	.st59{clip-path:url(#SVGID_22_);enable-background:new    ;}
	.st60{clip-path:url(#SVGID_24_);enable-background:new    ;}
	.st61{fill:#A6A3A3;}
	.st62{clip-path:url(#SVGID_26_);enable-background:new    ;}
	.st63{clip-path:url(#SVGID_28_);enable-background:new    ;}
	.st64{fill:#464748;}
	.st65{fill:#5C5D5D;}
	.st66{fill:none;stroke:#000000;stroke-miterlimit:10;}
	.st67{fill:#EE6359;}
	.st68{fill:none;stroke:#646464;stroke-width:4;stroke-linecap:round;stroke-linejoin:round;stroke-miterlimit:10;}
	.st69{fill:#222222;}
	.st70{clip-path:url(#SVGID_30_);enable-background:new    ;}
	.st71{clip-path:url(#SVGID_32_);enable-background:new    ;}
	.st72{clip-path:url(#SVGID_34_);enable-background:new    ;}
	.st73{clip-path:url(#SVGID_36_);enable-background:new    ;}
	.st74{clip-path:url(#SVGID_38_);enable-background:new    ;}
	.st75{clip-path:url(#SVGID_40_);enable-background:new    ;}
	.st76{clip-path:url(#SVGID_42_);enable-background:new    ;}
	.st77{clip-path:url(#SVGID_44_);enable-background:new    ;}
	.st78{clip-path:url(#SVGID_46_);enable-background:new    ;}
	.st79{clip-path:url(#SVGID_48_);enable-background:new    ;}
	.st80{clip-path:url(#SVGID_50_);enable-background:new    ;}
	.st81{clip-path:url(#SVGID_52_);enable-background:new    ;}
	.st82{clip-path:url(#SVGID_54_);enable-background:new    ;}
	.st83{clip-path:url(#SVGID_56_);enable-background:new    ;}
	.st84{clip-path:url(#SVGID_58_);enable-background:new    ;}
	.st85{clip-path:url(#SVGID_60_);enable-background:new    ;}
	.st86{clip-path:url(#SVGID_62_);enable-background:new    ;}
</style>
<g id="_x37_">
	<g>
		<path class="st67" d="M191.29,54.96H58.72c-5.1,0-9.25,4.15-9.25,9.25v121.57c0,5.1,4.15,9.25,9.25,9.25h132.57
			c5.1,0,9.25-4.15,9.25-9.25V64.22C200.54,59.12,196.39,54.96,191.29,54.96z M58.72,59.73h132.57c2.47,0,4.49,2.01,4.49,4.49V77.3
			H54.23V64.22C54.23,61.74,56.24,59.73,58.72,59.73z M191.29,190.27H58.72c-2.47,0-4.49-2.01-4.49-4.49V82.06h141.55v103.72
			C195.77,188.26,193.76,190.27,191.29,190.27z"/>
		<g>
			<g>
				<circle class="st67" cx="67.32" cy="68.66" r="3.79"/>
			</g>
		</g>
		<g>
			<g>
				<circle class="st67" cx="79.46" cy="68.66" r="3.79"/>
			</g>
		</g>
		<g>
			<g>
				
					<ellipse transform="matrix(0.7071 -0.7071 0.7071 0.7071 -21.7222 84.8813)" class="st67" cx="91.6" cy="68.66" rx="3.79" ry="3.79"/>
			</g>
		</g>
	</g>
	<g>
		<g>
			<path class="st67" d="M102.21,153.2c-0.52,0-1.03-0.17-1.47-0.51l-17.79-14c-0.57-0.45-0.91-1.14-0.91-1.87
				c0-0.73,0.34-1.42,0.91-1.87l17.79-14c1.03-0.81,2.53-0.63,3.35,0.4c0.81,1.03,0.63,2.53-0.4,3.35l-15.41,12.12l15.41,12.12
				c1.03,0.81,1.21,2.31,0.4,3.35C103.62,152.89,102.92,153.2,102.21,153.2z"/>
		</g>
	</g>
	<g>
		<g>
			<path class="st67" d="M147.79,153.2c-0.71,0-1.4-0.31-1.87-0.91c-0.81-1.03-0.63-2.53,0.4-3.35l15.41-12.12l-15.41-12.12
				c-1.03-0.81-1.21-2.31-0.4-3.35c0.81-1.03,2.31-1.21,3.35-0.4l17.79,14c0.57,0.45,0.91,1.14,0.91,1.87
				c0,0.73-0.34,1.42-0.91,1.87l-17.79,14C148.82,153.03,148.3,153.2,147.79,153.2z"/>
		</g>
	</g>
	<g>
		<g>
			<path class="st67" d="M119.61,163.46c-0.17,0-0.35-0.02-0.52-0.06c-1.28-0.29-2.09-1.56-1.81-2.84l10.78-48.51
				c0.29-1.28,1.56-2.09,2.84-1.81c1.28,0.29,2.09,1.56,1.81,2.84l-10.78,48.51C121.69,162.7,120.7,163.46,119.61,163.46z"/>
		</g>
	</g>
</g>
</svg>
